<mxfile host="app.diagrams.net" modified="2023-09-26T14:21:05.531Z" agent="Mozilla/5.0 (Windows NT 10.0; Win64; x64) AppleWebKit/537.36 (KHTML, like Gecko) Chrome/117.0.0.0 Safari/537.36" version="21.8.2" etag="-fsCvfHA6dqjjeKQKGE1" type="github">
  <diagram name="Seite-1" id="yhybqIsvf0kZUX5FgobR">
    <mxGraphModel>
      <root>
        <mxCell id="0" />
        <mxCell id="1" parent="0" />
      </root>
    </mxGraphModel>
  </diagram>
</mxfile>
